<svg xmlns="http://www.w3.org/2000/svg" width="187" height="239" viewBox="0 0 187 239" fill="none">
    <path d="M179.68 50.52L139.74 82.1C138.85 82.8 137.56 82.65 136.85 81.76L136.82 81.72H136.85C136.85 81.72 86.5901 18.11 86.3401 17.81C76.7401 6.17003 64.0101 0.640034 51.2701 0.130034C25.6701 -0.909965 0.370117 18.31 0.370117 48.92V185.49C0.370117 188.94 4.36012 190.85 7.05012 188.69L46.6901 156.98C47.5801 156.27 48.8801 156.42 49.5901 157.31L99.3701 220.32C109.18 232.74 122.46 238.53 135.7 238.92C161.13 239.68 186.36 220.51 186.36 190.11V53.75C186.36 50.31 182.39 48.39 179.69 50.52H179.68ZM133.21 171.52C133.21 173.47 130.75 174.32 129.54 172.79L92.5601 125.93C91.1501 124.15 88.5601 123.84 86.7801 125.25L56.5401 149.16C55.1901 150.23 53.2101 149.27 53.2101 147.55V67.54C53.2101 65.59 55.6701 64.74 56.8801 66.27L93.8601 113.13C95.2701 114.91 97.8601 115.22 99.6401 113.81L129.88 89.9C131.23 88.83 133.21 89.79 133.21 91.51V171.52Z" fill="#6CCA98"/>
</svg>
