<svg xmlns="http://www.w3.org/2000/svg" width="403" height="95" viewBox="0 0 403 95" fill="none"><g clip-path="url(#clip0_2103_3223)"><path d="M96.3652 23.7404H110.043L126.195 49.9264V23.7404H139.188V71.2284H125.51L109.358 45.0424V71.2284H96.3652V23.7404Z" fill="#06262D"></path><path d="M346.906 23.7404H365.396L374.951 52.8457L384.506 23.7404H402.996V71.2284H390.003V41.8526L379.9 71.2284H370.002L359.899 41.8526V71.2284H346.906V23.7404Z" fill="#06262D"></path><path d="M188.655 36.0215V23.7438H145.828V42.6793H155.851C156.536 42.6793 156.87 43.5026 156.379 43.9719L145.832 53.9428V71.2318H188.659V58.9541H158.825V53.9428H183.263V41.6651H158.825V36.0254H188.659L188.655 36.0215Z" fill="#06262D"></path><path d="M236.868 67.9473L223.154 47.4726L223.327 47.2141L223.291 47.1544L236.868 26.087V23.7405H222.706L215.456 34.996L208.202 23.7405H194.041V26.087L207.622 47.1544L207.586 47.2141L207.755 47.4726L194.041 67.9473V71.2285H207.312L215.456 59.0145L223.601 71.2285H236.868V67.9473Z" fill="#06262D"></path><path d="M280.175 31.1337C275.775 26.4047 269.033 23.74 260.561 23.74H242.277V71.2281H260.561C269.053 71.2281 275.783 68.5156 280.175 63.6713C281.328 62.4304 287.014 56.047 286.619 46.4221C286.273 38.0302 281.521 32.5774 280.175 31.1337ZM260.565 58.9504H255.274V36.0217H260.565C268.057 36.0217 272.39 40.158 272.39 47.146C272.39 54.6748 268.057 58.9504 260.565 58.9504Z" fill="#06262D"></path><path d="M290.688 47.4844C290.688 33.3732 301.685 22.8574 316.604 22.8574C331.523 22.8574 342.449 33.3732 342.449 47.4844C342.449 61.5956 331.451 72.1114 316.604 72.1114C301.758 72.1114 290.688 61.5956 290.688 47.4844ZM316.6 59.2888C323.818 59.2888 328.904 54.4048 328.904 47.4844C328.904 40.564 323.818 35.68 316.6 35.68C309.383 35.68 304.228 40.564 304.228 47.4844C304.228 54.4048 309.383 59.2888 316.6 59.2888Z" fill="#06262D"></path><path d="M72.266 20.0572L56.1702 32.6173C55.8115 32.8957 55.2916 32.836 55.0055 32.4821L54.9934 32.4662H55.0055C55.0055 32.4662 34.7507 7.16704 34.6499 7.04772C30.7771 2.42221 25.6469 0.2228 20.5127 0.0159848C10.1959 -0.397647 0 7.24658 0 19.4209V73.7378C0 75.11 1.60797 75.8696 2.69204 75.0105L18.667 62.3988C19.0256 62.1164 19.5495 62.176 19.8357 62.53L39.897 87.5905C43.8504 92.5302 49.2023 94.833 54.538 94.9881C64.7863 95.2904 74.954 87.6661 74.954 75.5753V21.3419C74.954 19.9737 73.3541 19.2101 72.266 20.0572ZM53.5386 68.1816C53.5386 68.9572 52.5472 69.2953 52.0595 68.6868L37.1566 50.0495C36.5884 49.3415 35.5446 49.2182 34.8273 49.779L22.6405 59.2886C22.0965 59.7141 21.2986 59.3323 21.2986 58.6482V26.8265C21.2986 26.0509 22.2899 25.7128 22.7776 26.3214L37.6805 44.9586C38.2487 45.6666 39.2925 45.7899 40.0098 45.2291L52.1966 35.7195C52.7406 35.294 53.5386 35.6758 53.5386 36.3599V68.1816Z" fill="#6CCA98"></path><path d="M101.008 85.3195C102.1 85.3195 102.979 85.6615 103.635 86.3416C104.292 87.0217 104.623 87.9444 104.623 89.1097V94.7574H103.003V89.2012C103.003 88.4535 102.797 87.8728 102.386 87.4632C101.975 87.0535 101.411 86.8467 100.69 86.8467C99.8795 86.8467 99.2307 87.0933 98.731 87.5904C98.2353 88.0876 97.9854 88.8512 97.9854 89.8813V94.7574H96.3613V81.8792H97.9854V86.8825C98.6423 85.8405 99.6498 85.3195 101.004 85.3195H101.008Z" fill="#06262D"></path><path d="M113.42 90.8956C113.581 91.7189 113.964 92.3552 114.569 92.8086C115.173 93.2621 115.915 93.4888 116.797 93.4888C118.026 93.4888 118.921 93.0393 119.481 92.1444L120.86 92.916C119.953 94.3041 118.587 94.9961 116.757 94.9961C115.278 94.9961 114.077 94.5387 113.15 93.624C112.223 92.7092 111.76 91.5558 111.76 90.1558C111.76 88.7559 112.215 87.6184 113.122 86.6956C114.029 85.7769 115.205 85.3156 116.644 85.3156C118.01 85.3156 119.127 85.7928 119.989 86.7434C120.851 87.6939 121.287 88.8394 121.287 90.1757C121.287 90.4104 121.267 90.649 121.23 90.8916H113.42V90.8956ZM116.644 86.8269C115.774 86.8269 115.052 87.0695 114.48 87.5547C113.908 88.04 113.553 88.6882 113.416 89.4956H119.642C119.505 88.6246 119.159 87.9604 118.599 87.507C118.039 87.0536 117.386 86.8269 116.64 86.8269H116.644Z" fill="#06262D"></path><path d="M136.249 85.5582H137.869V94.7575H136.249V93.1746C135.439 94.3876 134.266 94.9961 132.727 94.9961C131.421 94.9961 130.309 94.5268 129.39 93.5882C128.471 92.6496 128.012 91.5081 128.012 90.1558C128.012 88.8036 128.471 87.6621 129.39 86.7235C130.309 85.7849 131.421 85.3156 132.727 85.3156C134.266 85.3156 135.443 85.9241 136.249 87.1371V85.5542V85.5582ZM132.928 93.453C133.871 93.453 134.661 93.1388 135.298 92.5064C135.931 91.874 136.249 91.0945 136.249 90.1598C136.249 89.2252 135.931 88.4456 135.298 87.8132C134.665 87.1809 133.875 86.8667 132.928 86.8667C131.981 86.8667 131.212 87.1809 130.579 87.8132C129.946 88.4456 129.628 89.2291 129.628 90.1598C129.628 91.0905 129.946 91.874 130.579 92.5064C131.212 93.1388 131.997 93.453 132.928 93.453Z" fill="#06262D"></path><path d="M145.725 94.7574V81.3263H147.349V94.7574H145.725Z" fill="#06262D"></path><path d="M160.296 87.1054H157.817V92.0928C157.817 92.5462 157.906 92.8684 158.087 93.0593C158.269 93.2502 158.543 93.3457 158.918 93.3536C159.292 93.3616 159.752 93.3536 160.296 93.3258V94.7616C158.877 94.9445 157.842 94.8331 157.181 94.4195C156.52 94.0099 156.193 93.2343 156.193 92.0928V87.1054H154.348V85.5583H156.193V83.4623L157.817 82.985V85.5622H160.296V87.1094V87.1054Z" fill="#06262D"></path><path d="M172.26 85.3196C173.352 85.3196 174.231 85.6616 174.887 86.3417C175.544 87.0218 175.875 87.9445 175.875 89.1099V94.7575H174.255V89.2013C174.255 88.4536 174.049 87.873 173.638 87.4633C173.227 87.0536 172.663 86.8468 171.941 86.8468C171.131 86.8468 170.483 87.0934 169.983 87.5906C169.487 88.0877 169.237 88.8514 169.237 89.8815V94.7575H167.613V81.8793H169.237V86.8826C169.894 85.8406 170.902 85.3196 172.256 85.3196H172.26Z" fill="#06262D"></path><path d="M188.605 87.1054H186.126V92.0928C186.126 92.5462 186.215 92.8684 186.396 93.0593C186.577 93.2502 186.851 93.3457 187.226 93.3536C187.601 93.3616 188.06 93.3536 188.605 93.3258V94.7616C187.186 94.9445 186.15 94.8331 185.489 94.4195C184.828 94.0099 184.502 93.2343 184.502 92.0928V87.1054H182.656V85.5583H184.502V83.4623L186.126 82.985V85.5622H188.605V87.1094V87.1054Z" fill="#06262D"></path><path d="M196.592 90.8956C196.753 91.7189 197.136 92.3552 197.741 92.8086C198.345 93.2621 199.087 93.4888 199.969 93.4888C201.198 93.4888 202.093 93.0393 202.653 92.1444L204.031 92.916C203.125 94.3041 201.758 94.9961 199.929 94.9961C198.45 94.9961 197.249 94.5387 196.322 93.624C195.395 92.7092 194.932 91.5558 194.932 90.1558C194.932 88.7559 195.387 87.6184 196.294 86.6956C197.201 85.7769 198.377 85.3156 199.816 85.3156C201.182 85.3156 202.298 85.7928 203.161 86.7434C204.023 87.6939 204.459 88.8394 204.459 90.1757C204.459 90.4104 204.438 90.649 204.402 90.8916H196.592V90.8956ZM199.816 86.8269C198.946 86.8269 198.224 87.0695 197.652 87.5547C197.08 88.04 196.725 88.6882 196.588 89.4956H202.814C202.677 88.6246 202.331 87.9604 201.771 87.507C201.21 87.0536 200.558 86.8269 199.812 86.8269H199.816Z" fill="#06262D"></path><path d="M216.084 94.996C214.678 94.996 213.513 94.5346 212.578 93.6079C211.647 92.6812 211.18 91.5318 211.18 90.1597C211.18 88.7875 211.647 87.6341 212.578 86.7114C213.509 85.7847 214.678 85.3234 216.084 85.3234C217.003 85.3234 217.829 85.5421 218.563 85.9756C219.296 86.4131 219.844 86.9978 220.203 87.7336L218.841 88.5051C218.603 88.0159 218.24 87.6222 217.749 87.3279C217.257 87.0336 216.701 86.8864 216.08 86.8864C215.149 86.8864 214.367 87.2006 213.739 87.825C213.11 88.4495 212.796 89.229 212.796 90.1636C212.796 91.0983 213.11 91.8579 213.739 92.4824C214.367 93.1068 215.145 93.421 216.08 93.421C216.701 93.421 217.261 93.2778 217.757 92.9875C218.252 92.7011 218.631 92.3113 218.893 91.8182L220.271 92.6096C219.872 93.3335 219.3 93.9142 218.555 94.3477C217.809 94.7812 216.983 95 216.076 95L216.084 94.996Z" fill="#06262D"></path><path d="M231.924 85.3196C233.016 85.3196 233.895 85.6616 234.551 86.3417C235.208 87.0218 235.539 87.9445 235.539 89.1099V94.7575H233.919V89.2013C233.919 88.4536 233.713 87.873 233.302 87.4633C232.891 87.0536 232.327 86.8468 231.606 86.8468C230.796 86.8468 230.147 87.0934 229.647 87.5906C229.151 88.0877 228.901 88.8514 228.901 89.8815V94.7575H227.277V81.8793H228.901V86.8826C229.558 85.8406 230.566 85.3196 231.92 85.3196H231.924Z" fill="#06262D"></path></g><defs><clipPath id="clip0_2103_3223"><rect width="403" height="95" fill="white"></rect></clipPath></defs></svg>
